<svg width="24" height="24" viewBox="0 0 24 24" fill="none" xmlns="http://www.w3.org/2000/svg">
<path d="M11.8636 2C12.7761 2 12.8835 2.40759 12.8835 2.82923V4.44554H10.8168V5.52776H12.8835C12.8969 5.93535 12.9237 6.31483 12.9774 6.69431L11.045 7.5376L11.4476 8.53549L13.2458 7.76247C13.38 8.1279 13.5947 8.49332 13.8363 8.83064L12.548 10.461L13.2995 11.1637L14.5878 9.68798C14.9233 9.99719 15.2588 10.2221 15.6614 10.461L14.9233 12.6254L15.9029 12.9909L16.5873 10.9529C17.1241 11.1778 17.6878 11.4167 18.2782 11.6557L17.5804 13.6936L18.5332 14.059L19.2311 12.0351C20.3717 12.4146 21.0964 13.1174 21.7137 14.1434C22.1566 15.0288 22.0895 16.2797 21.4856 16.9684C21.1635 17.3619 20.667 17.5587 20.0765 17.7133H4.59003C3.52986 17.7133 2 15.0148 2 12.4568C2.01342 11.1778 2.14762 10.0112 2.61731 9.19607C3.06017 8.31061 3.36882 7.31272 3.3554 6.63809V4.06606C3.3554 3.20871 3.79826 3.26493 4.37531 3.11033C6.85798 2.74491 9.35406 2.19677 11.8636 2ZM19.3384 18.2193C20.3449 18.2193 21.1501 19.0766 21.1501 20.1167C21.1501 21.1567 20.3449 22 19.3384 22C18.3588 22 17.5402 21.1567 17.5402 20.1167C17.5402 19.0766 18.3588 18.2193 19.3384 18.2193ZM14.6952 18.2193C15.7016 18.2193 16.5068 19.0766 16.5068 20.1167C16.5068 21.1567 15.7016 22 14.6952 22C13.7021 22 12.8835 21.1567 12.8835 20.1167C12.8835 19.0766 13.7021 18.2193 14.6952 18.2193ZM10.0519 18.2193C11.045 18.2193 11.8636 19.0766 11.8636 20.1167C11.8636 21.1567 11.045 22 10.0519 22C9.04541 22 8.25364 21.1567 8.25364 20.1167C8.25364 19.0766 9.04541 18.2193 10.0519 18.2193ZM5.40864 18.2193C6.41512 18.2193 7.20689 19.0766 7.20689 20.1167C7.20689 21.1567 6.41512 22 5.40864 22C4.41557 22 3.59696 21.1567 3.59696 20.1167C3.59696 19.0766 4.41557 18.2193 5.40864 18.2193Z" fill="#FAFAFA"/>
</svg>
